<svg width="42" height="43" viewBox="0 0 42 43" fill="none" xmlns="http://www.w3.org/2000/svg">
<path d="M10.5091 35.0693L21.0175 35.0693L10.5091 42.0749L10.5091 35.0693Z" fill="#E24E53"/>
<path d="M10.5077 35.069L10.5077 24.4512L21.016 24.4512L21.016 35.069L10.5077 35.069Z" fill="#E24E53"/>
<path d="M10.5083 31.4569L0 24.4514L10.5083 17.4458L21.0167 24.4514L10.5083 31.4569Z" fill="#C7C9D8"/>
<path d="M20.8811 17.6235L31.3894 17.6235L20.8811 24.6291L20.8811 17.6235Z" fill="#E24E53"/>
<path d="M20.881 17.6232L20.881 7.00537L31.3893 7.00537L31.3893 17.6232L20.881 17.6232Z" fill="#E24E53"/>
<path d="M20.8825 14.0111L10.3741 7.00555L20.8825 0L31.3908 7.00555L20.8825 14.0111Z" fill="#C7C9D8"/>
<path d="M31.4915 35.3052L41.9999 35.3052L31.4915 42.3107L31.4915 35.3052Z" fill="#E24E53"/>
<path d="M31.4904 35.3048L31.4904 24.687L41.9987 24.687L41.9987 35.3048L31.4904 35.3048Z" fill="#E24E53"/>
<path d="M31.4905 31.6927L20.9822 24.6872L31.4905 17.6816L41.9988 24.6872L31.4905 31.6927Z" fill="#C7C9D8"/>
</svg>
