<svg width="631" height="74" viewBox="0 0 631 74" fill="none" xmlns="http://www.w3.org/2000/svg">
<path d="M112.704 15.594H104.479V61H112.704V15.594ZM129.282 41.0462C129.282 36.1243 132.253 33.2864 136.488 33.2864C140.634 33.2864 143.117 36.0134 143.117 40.5584V61H151.143V39.3169C151.165 31.158 146.509 26.5021 139.481 26.5021C134.382 26.5021 130.879 28.9409 129.327 32.7321H128.927V26.9455H121.256V61H129.282V41.0462ZM176.551 26.9455H169.478V24.2628C169.478 21.6023 170.587 20.1169 173.58 20.1169C174.843 20.1169 175.908 20.4051 176.573 20.6046L178.191 14.3968C177.149 14.0421 174.866 13.4656 172.094 13.4656C166.175 13.4656 161.452 16.8578 161.452 23.7307V26.9455H156.419V33.1534H161.452V61H169.478V33.1534H176.551V26.9455ZM182.836 61H190.862V40.9797C190.862 36.6564 194.121 33.5968 198.533 33.5968C199.885 33.5968 201.57 33.8407 202.258 34.0624V26.6795C201.526 26.5464 200.262 26.4578 199.375 26.4578C195.473 26.4578 192.214 28.6748 190.973 32.6213H190.618V26.9455H182.836V61ZM216.719 61.6873C222.062 61.6873 225.254 59.182 226.718 56.3219H226.984V61H234.699V38.2083C234.699 29.2069 227.361 26.5021 220.865 26.5021C213.703 26.5021 208.205 29.6947 206.431 35.9026L213.925 36.9668C214.723 34.6388 216.985 32.6434 220.909 32.6434C224.634 32.6434 226.673 34.5501 226.673 37.8979V38.031C226.673 40.3367 224.257 40.4476 218.248 41.0905C211.642 41.8 205.323 43.7732 205.323 51.4443C205.323 58.14 210.223 61.6873 216.719 61.6873ZM218.803 55.7898C215.455 55.7898 213.06 54.2601 213.06 51.3113C213.06 48.2296 215.743 46.9437 219.335 46.4337C221.441 46.1455 225.654 45.6134 226.696 44.7709V48.7838C226.696 52.5751 223.636 55.7898 218.803 55.7898ZM243.124 61H261.504C271.902 61 277.001 55.7012 277.001 48.6286C277.001 41.7557 272.124 37.7206 267.29 37.4767V37.0333C271.725 35.9912 275.228 32.8873 275.228 27.3668C275.228 20.6046 270.35 15.594 260.506 15.594H243.124V61ZM251.35 54.127V40.8245H260.417C265.495 40.8245 268.643 43.9284 268.643 47.9857C268.643 51.5995 266.16 54.127 260.196 54.127H251.35ZM251.35 34.9049V22.3783H259.664C264.497 22.3783 267.002 24.928 267.002 28.431C267.002 32.4217 263.765 34.9049 259.486 34.9049H251.35ZM291.828 15.594H283.802V61H291.828V15.594ZM314.936 61.6651C324.913 61.6651 331.253 54.637 331.253 44.1058C331.253 33.5524 324.913 26.5021 314.936 26.5021C304.959 26.5021 298.618 33.5524 298.618 44.1058C298.618 54.637 304.959 61.6651 314.936 61.6651ZM314.98 55.2356C309.459 55.2356 306.755 50.3136 306.755 44.0836C306.755 37.8536 309.459 32.8651 314.98 32.8651C320.412 32.8651 323.117 37.8536 323.117 44.0836C323.117 50.3136 320.412 55.2356 314.98 55.2356ZM352.92 61.6651C361.478 61.6651 366.932 56.588 367.508 49.3603H359.837C359.15 53.0185 356.512 55.1247 352.986 55.1247C347.976 55.1247 344.739 50.9344 344.739 43.9728C344.739 37.0998 348.042 32.976 352.986 32.976C356.844 32.976 359.216 35.4591 359.837 38.7404H367.508C366.954 31.3575 361.19 26.5021 352.876 26.5021C342.899 26.5021 336.602 33.7076 336.602 44.1058C336.602 54.4152 342.743 61.6651 352.92 61.6651ZM374.099 61H382.125V49.5598L385.051 46.4337L395.471 61H405.071L391.104 41.6448L404.295 26.9455H394.917L382.679 40.625H382.125V15.594H374.099V61ZM436.56 35.9469C435.451 30.1825 430.84 26.5021 422.858 26.5021C414.655 26.5021 409.068 30.5372 409.09 36.8337C409.068 41.8 412.127 45.0813 418.668 46.4337L424.476 47.6531C427.603 48.3404 429.066 49.6042 429.066 51.533C429.066 53.861 426.538 55.6125 422.725 55.6125C419.045 55.6125 416.65 54.0162 415.963 50.9566L408.137 51.7104C409.134 57.9626 414.389 61.6651 422.747 61.6651C431.261 61.6651 437.269 57.2531 437.291 50.8014C437.269 45.946 434.143 42.9751 427.713 41.5783L421.905 40.3367C418.446 39.5608 417.071 38.3635 417.094 36.3903C417.071 34.0845 419.621 32.4882 422.969 32.4882C426.671 32.4882 428.622 34.5058 429.243 36.745L436.56 35.9469Z" fill="black"/>
<path d="M17.8832 60.6772L35.7651 60.6772L17.8832 72.5986L17.8832 60.6772Z" fill="#E24E53"/>
<path d="M17.8811 60.6767L17.8811 42.6084L35.7631 42.6084L35.7631 60.6767L17.8811 60.6767Z" fill="#E24E53"/>
<path d="M17.882 54.5301L0 42.6088L17.882 30.6875L35.764 42.6088L17.882 54.5301Z" fill="#C7C9D8"/>
<path d="M35.5333 30.9897L53.4153 30.9897L35.5333 42.9111L35.5333 30.9897Z" fill="#E24E53"/>
<path d="M35.5332 30.9892L35.5332 12.9209L53.4152 12.9209L53.4152 30.9892L35.5332 30.9892Z" fill="#E24E53"/>
<path d="M35.5358 24.8426L17.6538 12.9213L35.5358 1L53.4178 12.9213L35.5358 24.8426Z" fill="#C7C9D8"/>
<path d="M53.5892 61.0786L71.4712 61.0786L53.5892 72.9999L53.5892 61.0786Z" fill="#E24E53"/>
<path d="M53.5872 61.078L53.5872 43.0098L71.4691 43.0098L71.4691 61.078L53.5872 61.078Z" fill="#E24E53"/>
<path d="M53.5873 54.931L35.7053 43.0097L53.5873 31.0884L71.4693 43.0097L53.5873 54.931Z" fill="#C7C9D8"/>
</svg>
