<svg xmlns="http://www.w3.org/2000/svg" viewBox="0 0 362.5 239.71"><defs><style>.cls-1{fill:#333;}.cls-2{fill:#f15a24;}.cls-2,.cls-3,.cls-4,.cls-5,.cls-6{stroke:#333;stroke-width:2.5px;}.cls-2,.cls-3,.cls-4,.cls-5{stroke-linejoin:bevel;}.cls-3{fill:#f7931e;}.cls-4,.cls-6{fill:#ed1c24;}.cls-5{fill:#fff;}.cls-6{stroke-miterlimit:10;}</style></defs><title>logo-and-site-design</title><g id="Layer_6" data-name="Layer 6"><path class="cls-1" d="M511.71,323V282.66h2.81V323Z" transform="translate(-504.75 -83.84)"/><path class="cls-1" d="M558.1,323h-2.84l-23.89-35.81h-.22q.33,6.4.33,9.66V323h-2.7V282.66h2.81l23.87,35.76h.17q-.25-5-.25-9.44V282.66h2.73Z" transform="translate(-504.75 -83.84)"/><path class="cls-1" d="M572.34,323h-2.81V282.66h22.1v2.59H572.34v17.11h18.21V305H572.34Z" transform="translate(-504.75 -83.84)"/><path class="cls-1" d="M600.71,305.42V323h-2.81V282.66h9.6q7.5,0,11.09,2.77t3.59,8.35a10.91,10.91,0,0,1-2.14,6.84,11.88,11.88,0,0,1-6.5,4l11,18.38h-3.37l-10.4-17.58Zm0-2.43h7.7q5.1,0,7.92-2.28t2.81-6.72q0-4.61-2.76-6.7t-9-2.1h-6.68Z" transform="translate(-504.75 -83.84)"/><path class="cls-1" d="M650.9,308.76H634.51L628.88,323h-3.12L642,282.5h1.79L659.67,323H656.5Zm-15.37-2.54H650l-5.49-14.54q-.69-1.71-1.66-4.75a44.29,44.29,0,0,1-1.63,4.8Z" transform="translate(-504.75 -83.84)"/><path class="cls-1" d="M665.38,282.66h11.06q7.48,0,11,2.54t3.5,7.67a8.3,8.3,0,0,1-2.14,5.84,10.42,10.42,0,0,1-6.25,3v.17q4.83.72,7.1,3a8.91,8.91,0,0,1,2.28,6.5q0,5.57-3.7,8.58t-10.49,3H665.38Zm2.81,18h8.88q5.68,0,8.26-1.89t2.58-5.92A6.38,6.38,0,0,0,685,287q-2.91-1.82-8.68-1.82H668.2Zm0,2.48v17.41h9.49q11.2,0,11.2-9.1,0-8.3-11.81-8.31Z" transform="translate(-504.75 -83.84)"/><path class="cls-1" d="M700.81,323V282.66h2.81v37.69h19.23V323Z" transform="translate(-504.75 -83.84)"/><path class="cls-1" d="M763.72,302.78q0,9.6-4.8,15.19t-13.24,5.59q-8.42,0-13.22-5.59t-4.8-15.24q0-9.63,4.84-15.16T745.73,282q8.44,0,13.22,5.56T763.72,302.78Zm-33,0q0,8.66,3.86,13.4t11.09,4.73q7.28,0,11.13-4.69t3.85-13.44q0-8.72-3.85-13.37t-11.08-4.65q-7.2,0-11.11,4.69T730.72,302.78Z" transform="translate(-504.75 -83.84)"/><path class="cls-1" d="M790.21,284.62q-7.59,0-11.95,4.86t-4.36,13.3q0,8.64,4.11,13.41T789.76,321a31.84,31.84,0,0,0,9.33-1.3v2.48a30.43,30.43,0,0,1-10,1.41q-8.5,0-13.38-5.49t-4.88-15.34a24.06,24.06,0,0,1,2.33-10.84,16.87,16.87,0,0,1,6.71-7.24A19.8,19.8,0,0,1,790,282.08a24.41,24.41,0,0,1,10.57,2.21l-1.13,2.54A20.47,20.47,0,0,0,790.21,284.62Z" transform="translate(-504.75 -83.84)"/><path class="cls-1" d="M835.21,323h-3.45l-15.48-21.3-5.38,4.75V323h-2.81V282.66h2.81v21l4.47-4.47,15.81-16.5h3.59l-16.53,17.05Z" transform="translate(-504.75 -83.84)"/><path class="cls-1" d="M863.19,312.6a9.68,9.68,0,0,1-3.71,8q-3.71,3-9.86,3-7.4,0-11.34-1.63v-2.81A28.68,28.68,0,0,0,849.39,321a12.46,12.46,0,0,0,7.88-2.28,7.22,7.22,0,0,0,2.91-6,6.9,6.9,0,0,0-1-3.79,8.82,8.82,0,0,0-3.15-2.75,38.8,38.8,0,0,0-6.4-2.68q-6.18-2.12-8.54-4.59a9.84,9.84,0,0,1,1.19-14,14.08,14.08,0,0,1,9.12-2.86,26.69,26.69,0,0,1,10.68,2.15l-1,2.43a24.92,24.92,0,0,0-9.6-2.1,11.26,11.26,0,0,0-7.12,2.07,6.76,6.76,0,0,0-2.65,5.63,7.38,7.38,0,0,0,.81,3.67,7.48,7.48,0,0,0,2.66,2.58,36.39,36.39,0,0,0,6.35,2.75,34.25,34.25,0,0,1,7.09,3.16,10.14,10.14,0,0,1,3.46,3.48A9.49,9.49,0,0,1,863.19,312.6Z" transform="translate(-504.75 -83.84)"/><polygon class="cls-2" points="1.25 109.16 1.25 145.16 91.25 181.16 181.25 145.16 181.25 109.16 91.25 145.16 1.25 109.16"/><polygon class="cls-3" points="181.25 109.16 181.25 145.16 271.25 181.16 361.25 145.16 361.25 109.16 271.25 145.16 181.25 109.16"/><polygon class="cls-4" points="181.25 109.16 271.25 73.16 271.25 37.16 181.25 73.16 91.25 37.16 91.25 73.16 181.25 109.16"/><polygon class="cls-5" points="1.25 109.16 91.25 145.16 181.25 109.16 91.25 73.16 1.25 109.16"/><polygon class="cls-5" points="181.25 109.16 271.25 145.16 361.25 109.16 271.25 73.16 181.25 109.16"/><polygon class="cls-5" points="91.25 37.16 181.25 73.16 271.25 37.16 181.25 1.16 91.25 37.16"/><line class="cls-6" x1="181.25" y1="73.16" x2="181.25" y2="109.16"/><line class="cls-6" x1="91.25" y1="145.16" x2="91.25" y2="181.16"/><line class="cls-6" x1="271.25" y1="145.16" x2="271.25" y2="181.16"/></g></svg>