<?xml version="1.0" standalone="no"?>
<!DOCTYPE svg PUBLIC "-//W3C//DTD SVG 20010904//EN"
 "http://www.w3.org/TR/2001/REC-SVG-20010904/DTD/svg10.dtd">
<svg version="1.0" xmlns="http://www.w3.org/2000/svg"
 width="1464.000000pt" height="1464.000000pt" viewBox="0 0 1464.000000 1464.000000"
 preserveAspectRatio="xMidYMid meet">
<metadata>
Created by potrace 1.11, written by Peter Selinger 2001-2013
</metadata>
<g transform="translate(0.000000,1464.000000) scale(0.100000,-0.100000)"
fill="#000000" stroke="none">
<path d="M5480 10320 c-987 -396 -1804 -724 -1815 -730 -51 -27 -50 -6 -55
-759 l-5 -703 -1769 -708 c-1041 -416 -1779 -716 -1792 -729 -13 -13 -25 -40
-29 -64 -3 -23 -5 -367 -3 -765 l3 -724 30 -26 c21 -19 599 -255 1853 -757
l1822 -729 1793 717 c985 395 1799 717 1808 717 9 0 820 -322 1803 -715 982
-393 1792 -715 1799 -715 7 0 30 9 52 21 21 12 304 127 629 256 325 129 764
304 976 388 212 84 684 272 1050 418 366 145 726 288 799 318 74 29 149 65
165 80 l31 27 3 724 c2 398 0 742 -3 765 -4 24 -16 51 -29 64 -13 13 -751 313
-1792 729 l-1769 708 -5 703 c-5 770 -2 732 -65 763 -16 9 -831 336 -1810 728
-1405 562 -1791 713 -1830 714 -46 3 -210 -61 -1845 -716z m3497 -157 c904
-361 1643 -659 1643 -662 0 -11 -3275 -1316 -3300 -1316 -25 0 -3300 1305
-3300 1316 0 8 3272 1317 3295 1318 11 1 759 -295 1662 -656z m-3592 -2882
c1443 -577 1646 -661 1624 -670 -13 -6 -757 -304 -1653 -662 -1017 -407 -1636
-649 -1650 -646 -16 4 -3177 1266 -3275 1308 -22 9 179 92 1620 669 904 362
1653 659 1665 659 11 1 762 -296 1669 -658z m7200 0 c1443 -577 1646 -661
1624 -670 -98 -42 -3259 -1304 -3275 -1308 -14 -3 -633 239 -1650 646 -896
358 -1640 656 -1653 662 -22 9 181 93 1620 669 904 362 1653 659 1665 659 11
1 763 -296 1669 -658z"/>
</g>
</svg>
